<?xml version="1.0" encoding="UTF-8"?>
<svg id="Layer_1" xmlns="http://www.w3.org/2000/svg" version="1.1" viewBox="0 0 1254 1254">
  <!-- Generator: Adobe Illustrator 29.1.0, SVG Export Plug-In . SVG Version: 2.1.0 Build 142)  -->
  <defs>
    <style>
      .st0 {
        fill: #e42029;
      }

      .st1 {
        fill: #1a4896;
      }

      .st2 {
        fill: #204384;
      }
    </style>
  </defs>
  <path class="st2" d="M0,0h1254.1c0,0-.2,902.4-.2,902.4-63.4-27.1-130.3-45.3-198-58.1L769.6,163.4l-276.4-.3c-95.6,226.7-191.9,453.2-289,679.3-55.7,11-110.6,24.7-164,43.9-13.4,4.8-26.6,11-40.2,15"/>
  <path class="st0" d="M1254.1,1254H208.5c0,0-208.4.2-208.4.2,0,0-1.7-251.4,0-263.4.2-1.5.2-2.8,1.6-3.8,37.3-23.3,77.2-42.4,118.7-57,24.4-8.6,50.7-13.9,74.1-24.5s44.9-23.4,67.8-34c155.6-71.9,325.3-112.9,497.7-111.6l-20.4-99.7,215.4,152.2-172,147.9-3.7-92.2c-52.2,1.4-105.2,9.5-155.6,22.8-112.9,29.9-218.8,93.3-264.5,205.5,82.2-58.1,181.2-86.8,280.4-100.6,69.1-9.6,138.9-9.9,208.3-10.4l41.2,111h272.8l-76.1-180c49.1,13.8,97.6,31.8,142.2,56.6,3.8,2.1,23.5,12.9,25,14.7s1.3,1.8,1.1,3.1"/>
  <polygon class="st1" points="733.1 631.3 527.4 631.3 629.7 361.2 733.1 631.3"/>
</svg>